<svg id="Layer_1" data-name="Layer 1" xmlns="http://www.w3.org/2000/svg" viewBox="0 0 281.75 244"><defs><style>.cls-1{fill:none;stroke:#000;stroke-miterlimit:10;stroke-width:2px;}.cls-2{fill-rule:evenodd;}</style></defs><title>logo</title><polygon class="cls-1" points="251.15 194 242.49 209 233.83 194 251.15 194"/><polygon class="cls-2" points="251.15 194 242.49 209 233.83 194 251.15 194"/><polygon class="cls-1" points="261.54 211 243.07 211 242.49 210 251.15 195 252.3 195 261.54 211"/><polygon class="cls-2" points="261.54 211 243.07 211 242.49 210 251.15 195 252.3 195 261.54 211"/><polygon class="cls-1" points="251.73 194 251.15 195 233.83 195 233.25 194 241.91 179 243.07 179 251.73 194"/><polygon class="cls-2" points="251.73 194 251.15 195 233.83 195 233.25 194 241.91 179 243.07 179 251.73 194"/><polygon class="cls-1" points="140.88 34 140.3 35 131.64 50 131.06 51 122.4 66 121.82 67 113.17 82 112.59 83 103.93 98 103.35 99 94.69 114 94.11 115 85.45 130 84.87 131 76.21 146 75.64 147 66.98 162 66.4 163 57.74 178 57.16 179 39.84 179 39.26 178 47.92 163 49.08 163 48.5 162 57.16 147 58.32 147 57.74 146 66.4 131 67.55 131 66.98 130 75.64 115 76.79 115 76.22 114 84.88 99 86.03 99 85.45 98 94.11 83 95.27 83 94.69 82 103.35 67 104.51 67 103.93 66 112.59 51 113.74 51 113.16 50 121.83 35 122.98 35 122.4 34 131.07 19 132.21 19 140.88 34"/><polygon class="cls-2" points="140.88 34 140.3 35 131.64 50 131.06 51 122.4 66 121.82 67 113.17 82 112.59 83 103.93 98 103.35 99 94.69 114 94.11 115 85.45 130 84.87 131 76.21 146 75.64 147 66.98 162 66.4 163 57.74 178 57.16 179 39.84 179 39.26 178 47.92 163 49.08 163 48.5 162 57.16 147 58.32 147 57.74 146 66.4 131 67.55 131 66.98 130 75.64 115 76.79 115 76.22 114 84.88 99 86.03 99 85.45 98 94.11 83 95.27 83 94.69 82 103.35 67 104.51 67 103.93 66 112.59 51 113.74 51 113.16 50 121.83 35 122.98 35 122.4 34 131.07 19 132.21 19 140.88 34"/><polygon class="cls-1" points="150.11 18 149.54 19 132.21 19 131.64 18.01 140.88 2 150.11 18"/><polygon class="cls-2" points="150.11 18 149.54 19 132.21 19 131.64 18.01 140.88 2 150.11 18"/><polygon class="cls-1" points="57.16 179 48.5 194 47.92 195 39.26 210 38.69 211 30.03 226 29.45 227 20.21 243 1.73 243 20.21 211 21.37 211 20.79 210 29.45 195 30.6 195 30.03 194 38.69 179 57.16 179"/><polygon class="cls-2" points="57.16 179 48.5 194 47.92 195 39.26 210 38.69 211 30.03 226 29.45 227 20.21 243 1.73 243 20.21 211 21.37 211 20.79 210 29.45 195 30.6 195 30.03 194 38.69 179 57.16 179"/><polygon class="cls-1" points="242.49 178 241.91 179 224.59 179 224.02 178 215.36 163 214.78 162 206.12 147 205.54 146 196.88 131 196.3 130 187.64 115 187.06 114 178.4 99 177.83 98 169.17 83 168.59 82 159.93 67 159.35 66 150.69 51 150.12 50 141.45 35 140.88 34 132.21 19 150.69 19 159.35 34 158.78 35 159.93 35 168.59 50 168.01 51 169.17 51 177.83 66 177.25 67 178.4 67 187.07 82 186.49 83 187.64 83 196.3 98 195.72 99 196.88 99 205.54 114 204.96 115 206.12 115 214.78 130 214.2 131 215.35 131 224.01 146 223.44 147 224.59 147 233.25 162 232.68 163 233.83 163 242.49 178"/><polygon class="cls-2" points="242.49 178 241.91 179 224.59 179 224.02 178 215.36 163 214.78 162 206.12 147 205.54 146 196.88 131 196.3 130 187.64 115 187.06 114 178.4 99 177.83 98 169.17 83 168.59 82 159.93 67 159.35 66 150.69 51 150.12 50 141.45 35 140.88 34 132.21 19 150.69 19 159.35 34 158.78 35 159.93 35 168.59 50 168.01 51 169.17 51 177.83 66 177.25 67 178.4 67 187.07 82 186.49 83 187.64 83 196.3 98 195.72 99 196.88 99 205.54 114 204.96 115 206.12 115 214.78 130 214.2 131 215.35 131 224.01 146 223.44 147 224.59 147 233.25 162 232.68 163 233.83 163 242.49 178"/><polygon class="cls-1" points="241.91 179 233.25 194 224.59 179 241.91 179"/><polygon class="cls-2" points="241.91 179 233.25 194 224.59 179 241.91 179"/><polygon class="cls-1" points="242.49 210 241.91 211 224.59 211 224.02 210 223.44 211 206.12 211 205.54 210 204.97 211 187.65 211 187.07 210 186.49 211 169.17 211 168.59 210 168.01 211 150.69 211 150.11 210.01 149.54 211 132.22 211 131.64 210 131.06 211 113.74 211 113.17 210 112.59 211 95.27 211 94.69 210 94.11 211 76.79 211 76.21 210 75.63 211 58.31 211 57.74 210 66.4 195 67.56 195 66.98 194 75.64 179 76.79 179 76.22 178 84.88 163 86.03 163 85.45 162 94.12 147 95.27 147 94.69 146 103.35 131 104.5 131 103.93 130.01 112.59 115 113.74 115 113.17 114 121.83 99 122.98 99 122.41 98 131.07 83 132.21 83 131.64 82 140.3 67 141.46 67 150.11 82 149.53 83 140.87 98 140.3 99 131.64 113.99 131.06 115 122.4 130 121.82 131 113.16 146 112.58 147 103.93 161.99 103.35 163 94.69 178 94.11 179 85.45 194 84.87 195 233.83 195 242.49 210"/><polygon class="cls-2" points="242.49 210 241.91 211 224.59 211 224.02 210 223.44 211 206.12 211 205.54 210 204.97 211 187.65 211 187.07 210 186.49 211 169.17 211 168.59 210 168.01 211 150.69 211 150.11 210.01 149.54 211 132.22 211 131.64 210 131.06 211 113.74 211 113.17 210 112.59 211 95.27 211 94.69 210 94.11 211 76.79 211 76.21 210 75.63 211 58.31 211 57.74 210 66.4 195 67.56 195 66.98 194 75.64 179 76.79 179 76.22 178 84.88 163 86.03 163 85.45 162 94.12 147 95.27 147 94.69 146 103.35 131 104.5 131 103.93 130.01 112.59 115 113.74 115 113.17 114 121.83 99 122.98 99 122.41 98 131.07 83 132.21 83 131.64 82 140.3 67 141.46 67 150.11 82 149.53 83 140.87 98 140.3 99 131.64 113.99 131.06 115 122.4 130 121.82 131 113.16 146 112.58 147 103.93 161.99 103.35 163 94.69 178 94.11 179 85.45 194 84.87 195 233.83 195 242.49 210"/><polygon class="cls-1" points="177.83 130 177.25 131 159.93 131 159.35 130.01 150.69 115 150.11 114 141.45 99 140.87 98 149.53 83 150.69 83 159.35 98 158.78 99 159.93 99 168.59 114 168.02 115 169.17 115 177.83 130"/><polygon class="cls-2" points="177.83 130 177.25 131 159.93 131 159.35 130.01 150.69 115 150.11 114 141.45 99 140.87 98 149.53 83 150.69 83 159.35 98 158.78 99 159.93 99 168.59 114 168.02 115 169.17 115 177.83 130"/><polygon class="cls-1" points="205.54 178 204.96 179 187.64 179 187.06 178 178.4 163 177.83 162 186.49 147 187.64 147 196.3 162 195.73 163 196.88 163 205.54 178"/><polygon class="cls-2" points="205.54 178 204.96 179 187.64 179 187.06 178 178.4 163 177.83 162 186.49 147 187.64 147 196.3 162 195.73 163 196.88 163 205.54 178"/><polygon class="cls-1" points="186.49 147 177.83 162 177.25 163 159.93 163 159.35 162 158.77 163 141.45 163 140.88 162 140.3 163 122.98 163 122.4 162 131.06 147 186.49 147"/><polygon class="cls-2" points="186.49 147 177.83 162 177.25 163 159.93 163 159.35 162 158.77 163 141.45 163 140.88 162 140.3 163 122.98 163 122.4 162 131.06 147 186.49 147"/><polygon class="cls-1" points="280.02 243 224.59 243 224.01 242 223.44 243 206.12 243 205.54 242 204.96 243 187.64 243 187.07 242 186.49 243 169.16 243 168.59 242 168.01 243 150.7 243 150.12 242 149.54 243 132.22 243 131.64 242 131.06 243 113.74 243 113.16 242 112.58 243 95.27 243 94.69 242 94.12 243 76.79 243 76.21 242 75.64 243 58.32 243 57.74 242 57.16 243 39.84 243 39.27 242 38.69 243 20.21 243 29.45 227 270.78 227 280.02 243"/><polygon class="cls-2" points="280.02 243 224.59 243 224.01 242 223.44 243 206.12 243 205.54 242 204.96 243 187.64 243 187.07 242 186.49 243 169.16 243 168.59 242 168.01 243 150.7 243 150.12 242 149.54 243 132.22 243 131.64 242 131.06 243 113.74 243 113.16 242 112.58 243 95.27 243 94.69 242 94.12 243 76.79 243 76.21 242 75.64 243 58.32 243 57.74 242 57.16 243 39.84 243 39.27 242 38.69 243 20.21 243 29.45 227 270.78 227 280.02 243"/></svg>